<mxfile host="app.diagrams.net" modified="2024-07-13T15:17:05.278Z" agent="Mozilla/5.0 (Windows NT 10.0; Win64; x64) AppleWebKit/537.36 (KHTML, like Gecko) Chrome/125.0.0.0 Safari/537.36 OPR/111.0.0.0" version="24.6.5" etag="ZKs3AHmNiFap5zGwX_62" type="github">
  <diagram name="Page-1" id="QvU79z-SeS5VcCY6ru9C">
    <mxGraphModel>
      <root>
        <mxCell id="0" />
        <mxCell id="1" parent="0" />
      </root>
    </mxGraphModel>
  </diagram>
</mxfile>
